# xmcd CD database file
#
# Track frame offsets:
#	150
#	21388
#	39621
#	57756
#	76156
#	92201
#	111688
#	132153
#	151103
#	167413
#	184611
#	202865
#	220906
#	244478
#	314168
#
# Disc length: 4352 seconds
#
# Revision: 21
# Processed by: cddbd v1.5.2PL0 Copyright (c) Steve Scherf et al.
# Submitted via: CDex 1.70beta2
#
DISCID=cf10fe0f
DTITLE=Stone, Joss - Mind, Body and Soul
DYEAR=2004
DGENRE=Neo-Soul
TTITLE0=Right to Be Wrong
TTITLE1=Jet Lag
TTITLE2=You Had Me
TTITLE3=Spoiled
TTITLE4=Don't Cha Wanna Ride
TTITLE5=Less Is More
TTITLE6=Security
TTITLE7=Young at Heart
TTITLE8=Snakes and Ladders
TTITLE9=Understand
TTITLE10=Don't Know How
TTITLE11=Torn and Tattered
TTITLE12=Killing Time
TTITLE13=Sleep Like a Child
TTITLE14=Holding out for a Hero
EXTD=YEAR: 2004
EXTT0=
EXTT1=
EXTT2=
EXTT3=
EXTT4=
EXTT5=
EXTT6=
EXTT7=
EXTT8=
EXTT9=
EXTT10=
EXTT11=
EXTT12=
EXTT13=
EXTT14=
PLAYORDER=
